<svg xmlns="http://www.w3.org/2000/svg" xmlns:xlink="http://www.w3.org/1999/xlink" width="500" zoomAndPan="magnify" viewBox="0 0 375 374.999991" height="500" preserveAspectRatio="xMidYMid meet" version="1.0"><defs><g/><clipPath id="8e76f55a2d"><path d="M 89.914062 210.816406 L 182.804688 210.816406 L 182.804688 221.148438 L 89.914062 221.148438 Z M 89.914062 210.816406 " clip-rule="nonzero"/></clipPath><clipPath id="eeb089bf33"><path d="M 194.894531 152.109375 L 287.789062 152.109375 L 287.789062 162.4375 L 194.894531 162.4375 Z M 194.894531 152.109375 " clip-rule="nonzero"/></clipPath></defs><g clip-path="url(#8e76f55a2d)"><path fill="#000000" d="M 89.914062 210.816406 L 182.800781 210.816406 L 182.800781 221.148438 L 89.914062 221.148438 Z M 89.914062 210.816406 " fill-opacity="1" fill-rule="nonzero"/></g><g clip-path="url(#eeb089bf33)"><path fill="#000000" d="M 194.894531 152.109375 L 287.785156 152.109375 L 287.785156 162.4375 L 194.894531 162.4375 Z M 194.894531 152.109375 " fill-opacity="1" fill-rule="nonzero"/></g><g fill="#000000" fill-opacity="1"><g transform="translate(88.370749, 192.370037)"><g><path d="M 0.539062 0 L 10.738281 0 L 13.558594 -7.257812 L 30.234375 -7.257812 L 33.054688 0 L 43.25 0 L 26.574219 -41.992188 L 17.214844 -41.992188 Z M 16.015625 -14.757812 L 21.894531 -30.113281 L 27.835938 -14.757812 Z M 16.015625 -14.757812 "/></g></g></g><g fill="#000000" fill-opacity="1"><g transform="translate(144.578264, 192.370037)"><g><path d="M 15.117188 0 L 24.65625 0 L 24.65625 -33.054688 L 37.972656 -33.054688 L 37.972656 -41.992188 L 1.800781 -41.992188 L 1.800781 -33.054688 L 15.117188 -33.054688 Z M 15.117188 0 "/></g></g></g><g fill="#000000" fill-opacity="1"><g transform="translate(201.424796, 220.874386)"><g><path d="M 5.039062 0 L 14.578125 0 L 14.578125 -14.457031 L 29.8125 -14.457031 L 29.8125 -22.855469 L 14.578125 -22.855469 L 14.578125 -33.351562 L 31.375 -33.351562 L 31.375 -41.992188 L 5.039062 -41.992188 Z M 5.039062 0 "/></g></g></g><g fill="#000000" fill-opacity="1"><g transform="translate(247.854693, 220.874386)"><g><path d="M 16.015625 0 L 25.554688 0 L 25.554688 -14.816406 L 40.972656 -41.992188 L 30.113281 -41.992188 L 24.953125 -32.273438 L 20.816406 -24.65625 L 16.617188 -32.273438 L 11.398438 -41.992188 L 0.539062 -41.992188 L 16.015625 -14.695312 Z M 16.015625 0 "/></g></g></g></svg>